<svg id="logo-out" xmlns="http://www.w3.org/2000/svg" viewBox="0 0 125.95 201.41"><defs><style>.cls-1{fill:#7a7a7a;}.cls-2{fill:#fff;}</style></defs><title>logo-icon</title><g id="logo-out_shadow"><path class="cls-1" d="M32.82,145.86c6-3.39,23.88-13.6,29.15-16.72C56,132.53,38.09,142.74,32.82,145.86Z" transform="translate(-10.29 -15.15)"/><path class="cls-1" d="M136.12,176.23c2.74-3.32-41.87-74.9-43.22-78.84l-8.46,4.92,10.4,18.19c8.67,14.89,26.28,45.65,29.16,50.51a33.82,33.82,0,0,1,3.3,7.14,14.82,14.82,0,0,1-.25,6.11,4.78,4.78,0,0,1-1.83,2.18,50.14,50.14,0,0,0,7.16-4c2.29-1.48,4-3.32,3.74-6.17Z" transform="translate(-10.29 -15.15)"/><path class="cls-1" d="M93.6,39.55C86.49,27.87,81.16,19.4,80,17.74a6.48,6.48,0,0,0-2-1.81,6,6,0,0,0-2.42-.78c-3.42,0-4.85,1.5-11.18,4.77Q55.16,24.67,45.61,30C33.93,36.6,23,43.27,12.74,49.92c24.42-14,30.62-17.26,48-27.26C64.52,20.49,67,18.08,72.05,22c2.12,2.42,3.14,3.38,7.85,11.51,5.55,9.56,10.36,18,13.22,23,4.1,7.13,10,17.31,12,34,7.48-4.71,10.87-7.77,10.63-12.63C115.58,74.3,111.52,70.45,93.6,39.55Z" transform="translate(-10.29 -15.15)"/><path class="cls-1" d="M93.6,39.55c-5-8-6.76-11.39-11.68-18.95" transform="translate(-10.29 -15.15)"/></g><g id="logo-out_front"><path class="cls-2" d="M70.49,20.94a16.87,16.87,0,0,1,5.84,6.17l28.84,50c3.23,5.58,3.21,11.61,0,13.45l-20.69,11.8L125.25,173a16.69,16.69,0,0,1,2.41,8.12c0,2.53-.89,4.44-2.44,5.32-10.45,6-30.16,17.2-31.2,17.79L73.33,216c-1.62.92-3.75.62-5.86-.6a16.77,16.77,0,0,1-5.85-6.16l-28.84-50c-3.22-5.57-3.2-11.6,0-13.44l20.69-11.8L12.7,63.37a16.72,16.72,0,0,1-2.41-8.13c0-2.52.89-4.43,2.45-5.32L64.63,20.35C66.25,19.42,68.37,19.72,70.49,20.94Z" transform="translate(-10.29 -15.15)"/></g></svg>